HIERARCHY
ROOT Hips
{
	OFFSET 0.00 0.00 0.00
	CHANNELS 6 Xposition Yposition Zposition Xrotation Yrotation Zrotation
	JOINT Spine
	{
		OFFSET 0.00000 1.70439 2.55658
		CHANNELS 3 Xrotation Yrotation Zrotation
		JOINT Spine1
		{
			OFFSET 0.00000 0.59193 3.35699
			CHANNELS 3 Xrotation Yrotation Zrotation
			JOINT Spine2
			{
				OFFSET 0.00000 0.29710 3.39581
				CHANNELS 3 Xrotation Yrotation Zrotation
				JOINT Spine3
				{
					OFFSET 0.00000 0.00000 3.40878
					CHANNELS 3 Xrotation Yrotation Zrotation
					JOINT Neck
					{
						OFFSET 0.00000 -1.27828 8.94804
						CHANNELS 3 Xrotation Yrotation Zrotation
						JOINT Head
						{
							OFFSET 0.00000 -0.81390 4.61586
							CHANNELS 3 Xrotation Yrotation Zrotation
							End Site
							{
								OFFSET 0.00000 0.00001 5.51796
							}
						}
					}
					JOINT RightShoulder
					{
						OFFSET -1.18875 -1.98124 6.41925
						CHANNELS 3 Xrotation Yrotation Zrotation
						JOINT RightArm
						{
							OFFSET -5.90412 0.00000 0.00000
							CHANNELS 3 Xrotation Yrotation Zrotation
							JOINT RightForeArm
							{
								OFFSET -11.94674 0.00000 0.00000
								CHANNELS 3 Xrotation Yrotation Zrotation
								JOINT RightHand
								{
									OFFSET -10.17720 0.00000 0.00000
									CHANNELS 3 Xrotation Yrotation Zrotation
									JOINT RightHandEnd
									{
										OFFSET -2.84518 0.00000 0.00000
										CHANNELS 3 Xrotation Yrotation Zrotation
										End Site
										{
											OFFSET -2.84518 0.00000 0.00000
										}
									}
									JOINT RightHandThumb1
									{
										OFFSET -1.13807 -1.89679 -0.75871
										CHANNELS 3 Yrotation Xrotation Zrotation
										End Site
										{
											OFFSET -2.74823 -0.73639 0.00000
										}
									}
								}
							}
						}
					}
					JOINT LeftShoulder
					{
						OFFSET 1.18875 -1.98124 6.41925
						CHANNELS 3 Xrotation Yrotation Zrotation
						JOINT LeftArm
						{
							OFFSET 5.90412 0.00000 0.00000
							CHANNELS 3 Xrotation Yrotation Zrotation
							JOINT LeftForeArm
							{
								OFFSET 11.94674 0.00000 0.00000
								CHANNELS 3 Xrotation Yrotation Zrotation
								JOINT LeftHand
								{
									OFFSET 10.17720 0.00000 0.00000
									CHANNELS 3 Xrotation Yrotation Zrotation
									JOINT LeftHandEnd
									{
										OFFSET 2.84518 0.00000 0.00000
										CHANNELS 3 Xrotation Yrotation Zrotation
										End Site
										{
											OFFSET 2.84518 0.00000 0.00000
										}
									}
									JOINT LeftHandThumb1
									{
										OFFSET 1.13807 -1.89679 -0.75871
										CHANNELS 3 Yrotation Xrotation Zrotation
										End Site
										{
											OFFSET 2.74823 -0.73639 0.00000
										}
									}
								}
							}
						}
					}
				}
			}
		}
	}
	JOINT RightUpLeg
	{
		OFFSET -3.52662 0.00000 -1.03025
		CHANNELS 3 Xrotation Yrotation Zrotation
		JOINT RightLeg
		{
			OFFSET 0.00001 0.00000 -17.80159
			CHANNELS 3 Xrotation Yrotation Zrotation
			JOINT RightFoot
			{
				OFFSET 0.00001 0.00000 -16.85992
				CHANNELS 3 Xrotation Yrotation Zrotation
				JOINT RightToeBase
				{
					OFFSET 0.00000 -5.42953 -1.97619
					CHANNELS 3 Xrotation Yrotation Zrotation
					End Site
					{
						OFFSET 0.00000 -2.85300 -0.00000
					}
				}
			}
		}
	}
	JOINT LeftUpLeg
	{
		OFFSET 3.52662 0.00000 -1.03025
		CHANNELS 3 Xrotation Yrotation Zrotation
		JOINT LeftLeg
		{
			OFFSET 0.00001 0.00000 -17.80159
			CHANNELS 3 Xrotation Yrotation Zrotation
			JOINT LeftFoot
			{
				OFFSET 0.00001 0.00000 -16.85992
				CHANNELS 3 Xrotation Yrotation Zrotation
				JOINT LeftToeBase
				{
					OFFSET 0.00000 -5.42953 -1.97619
					CHANNELS 3 Xrotation Yrotation Zrotation
					End Site
					{
						OFFSET 0.00000 -2.85300 -0.00000
					}
				}
			}
		}
	}
}
MOTION
Frames: 7
Frame Time: 0.008342
 -2.5379 -7.9201 38.1928 2.2960 1.9245 179.3874 1.8547 0.5267 -0.6823 0.9981 0.1789 -0.1061 0.7730 -1.9714 -1.3243 -0.4413 0.0006 0.4555 0.3283 0.2510 -1.5529 -2.7655 1.9657 0.9408 -2.6400 12.6388 -0.9458 1.0887 2.7446 -2.4071 0.0000 0.0000 10.2657 -2.0814 24.2199 -1.1560 0.0000 0.0000 0.0000 -0.0000 0.0000 -0.0000 -9.7762 -10.1942 -4.6659 3.8082 3.1676 2.9547 -0.0000 -0.0000 -14.3194 -5.2884 -22.7779 -0.6491 0.0000 0.0000 0.0000 0.0000 -0.0000 -0.0000 -1.6824 8.2613 -35.9224 17.1741 0.0000 0.0000 -11.7984 -4.7037 0.3755 2.2562 0.0000 0.0000 -1.1575 -2.5974 10.5844 11.7588 0.0000 0.0000 -6.0964 8.9766 3.2377 -2.8771 0.0000 -0.0000
 -2.5515 -7.9000 38.1967 2.2844 1.9011 179.3668 1.8311 0.5106 -0.6812 0.9907 0.1789 -0.1050 0.7855 -1.9654 -1.3159 -0.4359 0.0045 0.4596 0.3261 0.2350 -1.5653 -2.7895 1.9818 0.9528 -2.6539 12.6368 -0.9671 1.0831 2.7488 -2.4113 0.0000 0.0000 10.2446 -2.0661 24.1459 -1.2068 -0.0000 0.0000 -0.0000 -0.0000 -0.0000 0.0000 -9.7789 -10.1835 -4.6820 3.8377 3.1988 2.9450 -0.0000 -0.0000 -14.3065 -5.3077 -22.7363 -0.6838 0.0000 0.0000 0.0000 -0.0000 0.0000 0.0000 -1.5674 8.2197 -36.1937 16.9681 0.0000 0.0000 -11.7177 -4.7025 0.5940 2.2928 0.0000 0.0000 -1.1150 -2.5944 10.6053 11.7196 0.0000 0.0000 -6.1021 8.9579 3.2451 -2.8859 0.0000 -0.0000
 -2.5682 -7.8739 38.2016 2.2745 1.8657 179.3364 1.8065 0.4894 -0.6807 0.9805 0.1751 -0.1048 0.8022 -1.9573 -1.3015 -0.4294 0.0092 0.4637 0.3233 0.2106 -1.5799 -2.8183 2.0024 0.9699 -2.6716 12.6311 -0.9912 1.0756 2.7596 -2.4164 0.0000 0.0000 10.2208 -2.0447 24.0598 -1.2704 0.0000 0.0000 0.0000 0.0000 -0.0000 0.0000 -9.7825 -10.1677 -4.6987 3.8738 3.2327 2.9342 -0.0000 -0.0000 -14.2919 -5.3307 -22.6840 -0.7206 0.0000 -0.0000 -0.0000 0.0000 0.0000 0.0000 -1.4151 8.1559 -36.5131 16.6999 0.0000 0.0000 -11.6122 -4.7027 0.8581 2.3364 0.0000 0.0000 -1.0538 -2.5980 10.6461 11.6701 0.0000 0.0000 -6.1120 8.9353 3.2455 -2.8964 0.0000 -0.0000
 -2.5884 -7.8418 38.2073 2.2667 1.8257 179.2937 1.7798 0.4647 -0.6793 0.9725 0.1796 -0.1020 0.8178 -1.9533 -1.2880 -0.4206 0.0128 0.4701 0.3197 0.1788 -1.5944 -2.8499 2.0256 0.9915 -2.6922 12.6241 -1.0165 1.0663 2.7768 -2.4210 0.0000 0.0000 10.1958 -2.0174 23.9695 -1.3447 0.0000 0.0000 0.0000 -0.0000 -0.0000 0.0000 -9.7851 -10.1472 -4.7123 3.9138 3.2692 2.9216 -0.0000 -0.0000 -14.2759 -5.3573 -22.6246 -0.7579 -0.0000 -0.0000 0.0000 0.0000 -0.0000 0.0000 -1.2316 8.0810 -36.8706 16.3822 0.0000 0.0000 -11.4875 -4.7064 1.1655 2.3841 0.0000 0.0000 -0.9725 -2.5994 10.7047 11.6072 0.0000 0.0000 -6.1245 8.9084 3.2442 -2.9086 0.0000 -0.0000
 -2.6111 -7.8049 38.2134 2.2529 1.7780 179.2393 1.7467 0.4434 -0.6776 0.9576 0.1768 -0.1008 0.8399 -1.9493 -1.2684 -0.4109 0.0170 0.4761 0.3153 0.1386 -1.6088 -2.8847 2.0507 1.0182 -2.7168 12.6121 -1.0422 1.0563 2.8042 -2.4240 0.0000 0.0000 10.1718 -1.9849 23.8836 -1.4239 0.0000 0.0000 0.0000 -0.0000 -0.0000 -0.0000 -9.7891 -10.1197 -4.7224 3.9574 3.3025 2.9095 -0.0000 -0.0000 -14.2604 -5.3821 -22.5610 -0.7913 0.0000 0.0000 0.0000 0.0000 0.0000 0.0000 -1.0318 7.9909 -37.2475 16.0233 0.0000 0.0000 -11.3451 -4.7148 1.5017 2.4339 0.0000 0.0000 -0.8849 -2.6042 10.7816 11.5387 0.0000 0.0000 -6.1432 8.8778 3.2400 -2.9206 0.0000 -0.0000
 -2.6357 -7.7636 38.2197 2.2453 1.7274 179.1735 1.7173 0.4237 -0.6757 0.9439 0.1787 -0.0986 0.8609 -1.9503 -1.2482 -0.4001 0.0204 0.4832 0.3109 0.0911 -1.6218 -2.9182 2.0754 1.0485 -2.7428 12.5977 -1.0666 1.0467 2.8398 -2.4244 0.0000 0.0000 10.1509 -1.9483 23.8115 -1.5042 0.0000 -0.0000 -0.0000 -0.0000 0.0000 -0.0000 -9.7924 -10.0876 -4.7265 4.0028 3.3319 2.8978 -0.0000 -0.0000 -14.2454 -5.4092 -22.4954 -0.8224 0.0000 -0.0000 -0.0000 0.0000 0.0000 0.0000 -0.8093 7.8932 -37.6318 15.6364 0.0000 0.0000 -11.1903 -4.7309 1.8592 2.4825 0.0000 0.0000 -0.7777 -2.6074 10.8731 11.4619 0.0000 0.0000 -6.1666 8.8439 3.2363 -2.9335 0.0000 -0.0000
 -2.6614 -7.7194 38.2258 2.2325 1.6734 179.0973 1.6824 0.4079 -0.6726 0.9264 0.1783 -0.0966 0.8854 -1.9517 -1.2275 -0.3893 0.0220 0.4918 0.3062 0.0365 -1.6337 -2.9509 2.0979 1.0822 -2.7713 12.5777 -1.0894 1.0396 2.8872 -2.4214 0.0000 0.0000 10.1356 -1.9105 23.7623 -1.5791 -0.0000 0.0000 -0.0000 -0.0000 -0.0000 0.0000 -9.7969 -10.0495 -4.7241 4.0490 3.3527 2.8868 -0.0000 -0.0000 -14.2317 -5.4364 -22.4329 -0.8491 0.0000 -0.0000 -0.0000 0.0000 0.0000 0.0000 -0.5863 7.7890 -38.0009 15.2377 0.0000 0.0000 -11.0280 -4.7547 2.2198 2.5272 0.0000 0.0000 -0.6699 -2.6118 10.9762 11.3857 0.0000 0.0000 -6.1974 8.8072 3.2345 -2.9460 0.0000 -0.0000
